<svg xmlns="http://www.w3.org/2000/svg" viewBox="0 0 217.87 49.71"><g id="Layer_2" data-name="Layer 2"><g id="Layer_1-2" data-name="Layer 1"><path d="M37.48,7.74a19,19,0,0,0-13.65-5.8,20.62,20.62,0,0,0-9,1.88,20.94,20.94,0,0,0-6.77,5A22.66,22.66,0,0,0,3.77,16.2a25.81,25.81,0,0,0,0,17.51A22,22,0,0,0,8.1,41a20.67,20.67,0,0,0,6.77,4.94,21.2,21.2,0,0,0,9,1.83,22.54,22.54,0,0,0,7.59-1.32,17.85,17.85,0,0,0,6.47-4l1.53,1.43a18.14,18.14,0,0,1-7.18,4.43,26.33,26.33,0,0,1-8.41,1.38,24.23,24.23,0,0,1-9.52-1.84,23.08,23.08,0,0,1-7.54-5.09,22.83,22.83,0,0,1-5-7.84A27.33,27.33,0,0,1,0,25,27.31,27.31,0,0,1,1.78,15,23.1,23.1,0,0,1,14.31,1.88,23.72,23.72,0,0,1,23.83,0a22.38,22.38,0,0,1,8.51,1.63,19.86,19.86,0,0,1,6.88,4.58Z"/><path d="M96.46,48.28H93.4L78.12,3.87h-.2L62.74,48.28H59.69L46,1.43h2.34L61.21,46h.21L76.49,1.43h3.16L94.83,46H95L107.87,1.43h2.34Z"/><path d="M157.47,7.74a19,19,0,0,0-6.21-4.28,18.69,18.69,0,0,0-7.44-1.52,20.59,20.59,0,0,0-9,1.88,21.09,21.09,0,0,0-6.78,5,22.64,22.64,0,0,0-4.32,7.34,25.81,25.81,0,0,0,0,17.51A22,22,0,0,0,128.08,41a20.82,20.82,0,0,0,6.78,4.94,21.16,21.16,0,0,0,9,1.83,22.54,22.54,0,0,0,7.59-1.32,17.93,17.93,0,0,0,6.47-4l1.52,1.43a18.07,18.07,0,0,1-7.18,4.43,26.31,26.31,0,0,1-8.4,1.38,24.19,24.19,0,0,1-9.52-1.84,23.08,23.08,0,0,1-7.54-5.09,22.83,22.83,0,0,1-5-7.84A27.33,27.33,0,0,1,120,25a27.31,27.31,0,0,1,1.78-10A23.1,23.1,0,0,1,134.3,1.88,23.68,23.68,0,0,1,143.82,0a22.42,22.42,0,0,1,8.51,1.63,19.72,19.72,0,0,1,6.87,4.58Z"/><path d="M217.87,24.75a27.72,27.72,0,0,1-1.78,10.08,23,23,0,0,1-5,7.9,22.81,22.81,0,0,1-7.8,5.14,26.27,26.27,0,0,1-9.93,1.84,25.9,25.9,0,0,1-9.88-1.84,22.75,22.75,0,0,1-7.74-5.14,23,23,0,0,1-5-7.9,27.51,27.51,0,0,1-1.78-10.08,27.13,27.13,0,0,1,1.78-10,22.58,22.58,0,0,1,5-7.79,23.24,23.24,0,0,1,7.74-5.1A25.9,25.9,0,0,1,193.32,0a26.27,26.27,0,0,1,9.93,1.83,23.3,23.3,0,0,1,7.8,5.1,22.58,22.58,0,0,1,5,7.79A27.33,27.33,0,0,1,217.87,24.75Zm-2.24,0a25.55,25.55,0,0,0-1.53-8.86,21.17,21.17,0,0,0-4.43-7.28,20.75,20.75,0,0,0-7-4.89,23.23,23.23,0,0,0-9.32-1.78,22.91,22.91,0,0,0-9.27,1.78,20.8,20.8,0,0,0-11.4,12.17,25.55,25.55,0,0,0-1.53,8.86,25.82,25.82,0,0,0,1.53,9A21,21,0,0,0,177.08,41a21.62,21.62,0,0,0,7,4.94,22.42,22.42,0,0,0,9.27,1.83,22.73,22.73,0,0,0,9.32-1.83,21.45,21.45,0,0,0,7-4.94,21.12,21.12,0,0,0,4.43-7.29A25.82,25.82,0,0,0,215.63,24.75Z"/></g></g></svg>