<svg xmlns="http://www.w3.org/2000/svg" viewBox="0 0 315.08 314.13"><defs><style>.cls-1{stroke:#000;stroke-miterlimit:10;}.cls-2{fill:#29abe2;}</style></defs><g id="Layer_2" data-name="Layer 2"><g id="Layer_1-2" data-name="Layer 1"><path class="cls-1" d="M300.45,167.34a0,0,0,0,1,0,0s0,0,0,0a0,0,0,0,1,0,0c0,.19,0,.38,0,.57v0A150,150,0,1,1,143,13.82v.07l.31,0h.08l.2,0,.09,0h0a2.22,2.22,0,0,1,.37.09,4.22,4.22,0,0,1,1,.49,3.33,3.33,0,0,1,.32.24,3.17,3.17,0,0,1,.34.3,3.08,3.08,0,0,1,.3.33,5,5,0,0,1,.45.56l.23.34.06.11a5.42,5.42,0,0,1,.26.48,5.05,5.05,0,0,1,.24.53.14.14,0,0,1,0,.06c.07.16.13.33.19.5s0,.09,0,.14l.15.51s0,0,0,.06c.05.18.09.36.13.55s0,.16,0,.24,0,.31.07.48.05.42.06.63,0,.51,0,.77l.09,60c0,4.14-2.22,7.5-5,7.51V89a75,75,0,1,0,82.2,79.5c0-.41.06-.82.07-1.23s0-.59,0-.88a4.29,4.29,0,0,1,1.1-1.83,4.35,4.35,0,0,1,3.11-1.29l66.4-.11a4.41,4.41,0,0,1,4.39,4A1.15,1.15,0,0,1,300.45,167.34Z"/><rect class="cls-2" x="226.62" y="13.46" width="75" height="75" rx="5" transform="translate(414.85 273.76) rotate(-135)"/></g></g></svg>